# xmcd
#
# Track frame offsets:
#	150
#	12171
#	26862
#	41839
#	62510
#	77455
#	92071
#	105866
#
# Disc length: 1616 seconds
#
# Revision: 1
# Processed by: cddbd v1.5.2PL0 Copyright (c) Steve Scherf et al.
# Submitted via: audiograbber 1.83.01
#
DISCID=53064e08
DTITLE=Phillip Clarkson - South Fork Records 06
DYEAR=2008
DGENRE=Country
TTITLE0=Rockin The Country  - Phil Coley
TTITLE1=Can´t Carry A Tune In A Bucket  - Phillip Clarkson
TTITLE2=A New Day - Meaderet Lake
TTITLE3=House Of Misery  - Phillip Clarkson
TTITLE4=Willie Done It His Way  - Phil Coley
TTITLE5=Under The Water  - Phillip Clarkson
TTITLE6=Nobody´s Anything  - Meandered Lake
TTITLE7=Backdoor To Heaven  - Phillip Clarkson
EXTD=
EXTT0=
EXTT1=
EXTT2=
EXTT3=
EXTT4=
EXTT5=
EXTT6=
EXTT7=
PLAYORDER=
